HIERARCHY
ROOT Hips
{
	OFFSET 0.00000 0.00000 0.00000
	CHANNELS 6 Xposition Yposition Zposition Zrotation Yrotation Xrotation 
	JOINT LHipJoint
	{
		OFFSET 0 0 0
		CHANNELS 3 Zrotation Yrotation Xrotation
		JOINT LeftHip
		{
			OFFSET 1.65412 -1.54119 0.76744
			CHANNELS 3 Zrotation Yrotation Xrotation
			JOINT LeftKnee
			{
				OFFSET 2.19550 -6.03209 0.00000
				CHANNELS 3 Zrotation Yrotation Xrotation
				JOINT LeftAnkle
				{
					OFFSET 2.38814 -6.56138 0.00000
					CHANNELS 3 Zrotation Yrotation Xrotation
					JOINT LeftToe
					{
						OFFSET 0.17337 -0.47632 1.75875
						CHANNELS 3 Zrotation Yrotation Xrotation
						End Site
						{
							OFFSET 0.00000 -0.00000 0.92050
						}
					}
				}
			}
		}
	}
	JOINT RHipJoint
	{
		OFFSET 0 0 0
		CHANNELS 3 Zrotation Yrotation Xrotation
		JOINT RightHip
		{
			OFFSET -1.40291 -1.54119 0.76744
			CHANNELS 3 Zrotation Yrotation Xrotation
			JOINT RightKnee
			{
				OFFSET -2.22156 -6.10370 0.00000
				CHANNELS 3 Zrotation Yrotation Xrotation
				JOINT RightAnkle
				{
					OFFSET -2.46840 -6.78188 0.00000
					CHANNELS 3 Zrotation Yrotation Xrotation
					JOINT RightToe
					{
						OFFSET -0.15659 -0.43024 1.84117
						CHANNELS 3 Zrotation Yrotation Xrotation
						End Site
						{
							OFFSET -0.00000 -0.00000 0.95587
						}
					}
				}
			}
		}
	}
	JOINT lowerback
	{
		OFFSET 0 0 0
		CHANNELS 3 Zrotation Yrotation Xrotation
		JOINT Chest
		{
			OFFSET -0.01936 1.82120 -0.32061
			CHANNELS 3 Zrotation Yrotation Xrotation
			JOINT Chest2
			{
				OFFSET -0.00532 1.85767 -0.00071
				CHANNELS 3 Zrotation Yrotation Xrotation
				JOINT lowerneck
				{
					OFFSET 0 0 0
					CHANNELS 3 Zrotation Yrotation Xrotation
					JOINT Neck
					{
						OFFSET -0.10687 1.58194 0.10810
						CHANNELS 3 Zrotation Yrotation Xrotation
						JOINT Head
						{
							OFFSET 0.15346 1.57382 -0.25612
							CHANNELS 3 Zrotation Yrotation Xrotation
							End Site
							{
								OFFSET 0.05334 1.61251 -0.10513
							}
						}
					}
				}
				JOINT LeftCollar
				{
					OFFSET 0 0 0
					CHANNELS 3 Zrotation Yrotation Xrotation
					JOINT LeftShoulder
					{
						OFFSET 2.85758 0.89498 -0.01485
CHANNELS 3 Zrotation Xrotation Yrotation
						JOINT LeftElbow
						{
OFFSET 0 -4.791850 -0.000000
CHANNELS 3 Zrotation Xrotation Yrotation
							JOINT LeftWrist
							{
OFFSET 0 -2.655530 0.000000
CHANNELS 3 Zrotation Xrotation Yrotation
								JOINT lhand
								{
									OFFSET 0 0 0
CHANNELS 3 Zrotation Xrotation Yrotation
									JOINT LFingers
									{
OFFSET 0 -0.743900 0.000000
CHANNELS 3 Zrotation Xrotation Yrotation
										End Site
										{
OFFSET 0 -0.599750 0.000000
										}
									}
								}
								JOINT LThumb
								{
OFFSET 0 0.000000 0.000000
CHANNELS 3 Zrotation Xrotation Yrotation
									End Site
									{
OFFSET 0 -0.608910 0.608910
									}
								}
							}
						}
					}
				}
				JOINT RightCollar
				{
					OFFSET 0 0 0
					CHANNELS 3 Zrotation Yrotation Xrotation
					JOINT RightShoulder
					{
						OFFSET -2.93906 0.88031 0.02490
CHANNELS 3 Zrotation Xrotation Yrotation
						JOINT RightElbow
						{
OFFSET 0 -4.772540 -0.000000
CHANNELS 3 Zrotation Xrotation Yrotation
							JOINT RightWrist
							{
OFFSET 0 -2.759950 -0.000000
CHANNELS 3 Zrotation Xrotation Yrotation
								JOINT rhand
								{
									OFFSET 0 0 0
CHANNELS 3 Zrotation Xrotation Yrotation
									JOINT RFingers
									{
OFFSET 0 -0.701620 0.000000
CHANNELS 3 Zrotation Xrotation Yrotation
										End Site
										{
OFFSET 0 -0.565660 0.000000
										}
									}
								}
								JOINT RThumb
								{
OFFSET 0 0.000000 0.000000
CHANNELS 3 Zrotation Xrotation Yrotation
									End Site
									{
OFFSET 0 -0.574300 0.574300
									}
								}
							}
						}
					}
				}
			}
		}
	}
}
MOTION
Frames: 9
Frame Time: 0.008333333333333333
0.334200 16.164300 -0.212800 -0.870300 -1.006600 -1.989000 0.000000 0.000000 0.000000 -16.999100 -6.010900 10.783200 0.000000 -0.000000 -0.000000 -0.184800 8.493700 -7.159100 0.225700 -3.058200 -8.440700 0.000000 0.000000 0.000000 18.331700 10.158900 5.279500 -0.394900 -4.035200 11.175600 0.337300 -13.301100 -13.958600 -0.044100 1.355200 -3.726600 -0.353200 -0.131700 10.850900 0.680800 -0.182500 1.300800 0.935900 -0.078200 -4.723300 -15.825400 -11.243600 -1.928100 7.758800 -17.188100 35.621200 3.415000 -8.824100 14.869000 -0.000000 -0.000000 0.000000 3.514100 2.485000 -21.813700 14.236200 -23.071300 2.920000 15.814100 1.180100 -17.224200 0.000000 0.000000 0.000000 -7.125000 0.000000 0.000000 -11.603500 47.497400 0.724300 -0.000000 -0.000000 0.000000 -2.974000 1.708000 29.685100 -15.205300 -24.431300 -3.310400 -19.702000 4.826300 -12.093900 0.000000 0.000000 0.000000 7.125000 0.000000 -0.000000 5.224400 17.191200 3.461400
0.318900 16.183384 -0.145716 -0.671165 -0.963010 -0.575289 0.000000 0.000000 0.000000 -17.051852 -6.396757 9.613150 0.000000 0.000000 0.000000 -0.176237 8.455431 -7.418466 0.174827 -2.693229 -7.425819 0.000000 0.000000 0.000000 17.955997 10.504366 4.162174 -0.391584 -4.018072 11.127533 0.276930 -13.064385 -14.588580 -0.008225 0.570816 -1.568674 -0.184662 -0.079182 10.712155 0.775389 -0.085626 0.825515 0.926577 -0.029997 -5.145755 -14.427642 -9.607794 -3.804351 7.686694 -14.121904 31.084592 3.567206 -7.234480 12.564391 0.000000 0.000000 0.000000 2.751535 3.716338 -23.170272 14.097199 -22.873446 2.865805 14.997662 0.508538 -14.827644 0.000000 0.000000 0.000000 -7.125000 0.000000 0.000000 -11.655715 44.982276 -0.005208 0.000000 0.000000 0.000000 -2.861911 3.432941 26.039630 -14.304655 -23.168517 -2.946914 -19.502692 5.797162 -12.695707 0.000000 0.000000 0.000000 7.125000 0.000000 0.000000 5.377725 16.576795 3.636046
0.282258 16.186742 -0.029265 -0.997797 -0.467707 -0.027508 0.000000 0.000000 0.000000 -16.610687 -6.902659 9.596631 0.000000 0.000000 0.000000 -0.168752 8.494070 -7.804458 0.197579 -2.862524 -7.896186 0.000000 0.000000 0.000000 18.461179 10.178263 4.391179 -0.347869 -3.789671 10.485687 0.299111 -13.395123 -14.827949 -0.014519 0.766543 -2.106611 0.146509 0.073364 9.803780 0.543778 0.143507 0.227045 0.464156 0.073769 -5.266536 -13.578702 -8.789774 -5.270066 6.457914 -12.672562 33.834027 3.136926 -6.595051 13.679468 0.000000 0.000000 0.000000 2.670131 3.427288 -26.958195 14.616928 -23.609726 3.070892 15.572099 -0.756694 -15.418981 0.000000 0.000000 0.000000 -7.125000 0.000000 0.000000 -11.296465 45.647274 0.182822 0.000000 0.000000 0.000000 -2.160103 4.095866 24.199758 -13.503753 -22.020901 -2.639190 -19.081405 7.050636 -13.157399 0.000000 0.000000 0.000000 7.125000 0.000000 0.000000 5.680578 16.131192 3.898020
0.230406 16.164901 0.071924 -1.194105 -0.012379 -0.646707 0.000000 0.000000 0.000000 -16.373137 -7.044172 10.683084 0.000000 0.000000 0.000000 -0.156101 8.486838 -8.239461 0.217013 -2.998892 -8.275684 0.000000 0.000000 0.000000 19.017997 9.646990 5.638696 -0.320788 -3.640770 10.068132 0.250837 -13.225943 -15.323610 -0.000384 0.010842 -0.029855 -0.567110 0.106201 9.207829 0.348836 0.098993 0.370042 0.669015 0.065162 -4.782819 -13.301936 -8.371670 -5.198236 6.264109 -12.154020 35.330425 3.118336 -6.373384 14.236694 0.000000 0.000000 0.000000 3.084457 2.259566 -31.581572 16.484633 -26.173304 3.857231 15.249984 -5.084967 -14.841363 0.000000 0.000000 0.000000 -7.125000 0.000000 0.000000 -11.430858 45.026051 0.007442 0.000000 0.000000 0.000000 -2.045401 3.252181 26.607615 -14.877991 -23.975773 -3.176281 -18.790891 4.537978 -12.096499 0.000000 0.000000 0.000000 7.125000 0.000000 0.000000 5.859227 17.265265 3.876671
0.195001 16.139308 0.163892 -1.143564 0.135795 -1.090077 0.000000 0.000000 0.000000 -16.444330 -6.910134 11.573708 0.000000 0.000000 0.000000 -0.147712 8.479755 -8.500975 0.263485 -3.302103 -9.120901 0.000000 0.000000 0.000000 19.137837 8.596346 6.382078 -0.304637 -3.548364 9.809345 0.208028 -12.791777 -15.253743 -0.004025 0.398938 -1.096322 -1.201175 0.302019 9.189341 -0.084136 0.271035 0.268892 0.552692 0.160496 -4.881837 -12.754277 -8.152169 -5.715317 6.627301 -11.985475 35.310146 3.184735 -6.176255 14.292910 0.000000 0.000000 0.000000 3.531621 1.681273 -34.994019 17.765905 -27.856375 4.439311 16.114702 -5.508574 -14.581554 0.000000 0.000000 0.000000 -7.125000 0.000000 0.000000 -10.579002 44.865788 -0.034804 0.000000 0.000000 0.000000 -1.700415 2.744952 29.483992 -16.983149 -26.835453 -4.079808 -20.376342 1.131266 -12.255577 0.000000 0.000000 0.000000 7.125000 0.000000 0.000000 4.759285 16.961621 3.174815
0.177501 16.139279 0.261686 -1.311005 -0.011925 -0.977529 0.000000 0.000000 0.000000 -16.215408 -6.652669 11.846335 0.000000 0.000000 0.000000 -0.123276 8.309305 -8.912195 0.254345 -3.244344 -8.959752 0.000000 0.000000 0.000000 19.386010 8.521861 6.459238 -0.317532 -3.622191 10.016042 0.148941 -12.441460 -15.599265 -0.000790 0.181220 -0.497913 -1.506507 0.417232 8.345971 -0.228825 0.400404 0.227886 0.561580 0.227405 -4.454741 -12.906842 -7.990923 -5.784877 7.218805 -11.815797 34.185173 3.461090 -6.048095 13.822772 0.000000 0.000000 0.000000 3.450630 0.626028 -35.277797 17.260698 -27.200123 4.205781 15.925920 -5.290169 -14.142947 0.000000 0.000000 0.000000 -7.125000 0.000000 0.000000 -10.636842 44.399138 -0.159597 0.000000 0.000000 0.000000 -1.609679 2.047805 31.502725 -18.266919 -28.497575 -4.675900 -20.630242 -0.309922 -11.931297 0.000000 0.000000 0.000000 7.125000 0.000000 0.000000 4.573017 17.281928 3.017637
0.159075 16.134547 0.362470 -1.748039 0.126457 -0.721991 0.000000 0.000000 0.000000 -15.691188 -6.739654 11.991729 0.000000 0.000000 0.000000 -0.108384 8.233757 -9.199132 0.260634 -3.284636 -9.072222 0.000000 0.000000 0.000000 19.982017 8.220876 6.947441 -0.272110 -3.355081 9.268937 0.195963 -12.795132 -15.452001 -0.007807 0.550449 -1.512606 -1.453448 0.475779 7.724591 -0.248704 0.491269 -0.048465 0.503337 0.272215 -4.394540 -12.999252 -7.729833 -5.066900 8.462805 -11.611741 30.743224 3.971320 -5.840305 12.247115 0.000000 0.000000 0.000000 3.644088 1.163388 -35.788689 16.068856 -25.613885 3.675692 16.330490 -4.426845 -13.395596 0.000000 0.000000 0.000000 -7.125000 0.000000 0.000000 -10.090067 43.685073 -0.330964 0.000000 0.000000 0.000000 -1.580351 2.712920 34.166306 -18.595890 -28.913342 -4.833913 -20.602754 -0.685488 -11.644465 0.000000 0.000000 0.000000 7.125000 0.000000 0.000000 4.584055 17.587777 2.994307
0.171847 16.133146 0.413017 -1.766357 0.013284 -0.787525 0.000000 0.000000 0.000000 -15.724465 -6.528933 12.241891 0.000000 0.000000 0.000000 -0.088211 8.032374 -9.390724 0.253252 -3.237697 -8.941107 0.000000 0.000000 0.000000 19.954665 7.978936 6.791192 -0.300903 -3.526676 9.748780 0.198225 -12.658644 -15.183195 -0.060323 1.584192 -4.357871 -1.371220 0.526507 8.196833 -0.220531 0.562609 0.317980 0.476297 0.303648 -4.279385 -12.880158 -7.130350 -4.202539 10.918860 -10.661514 21.013236 4.845163 -5.183277 8.472787 0.000000 0.000000 0.000000 5.921593 2.882211 -47.250249 20.764470 -31.546827 5.928863 5.786801 -6.273871 -18.572617 0.000000 0.000000 0.000000 -7.125000 0.000000 0.000000 -21.297792 47.445553 1.345308 0.000000 0.000000 0.000000 -3.938676 2.727907 51.078869 -23.047330 -34.135455 -7.167034 -12.897254 -9.267003 -7.919966 0.000000 0.000000 0.000000 7.125000 0.000000 0.000000 10.107444 21.899992 5.694242
0.199561 16.163410 0.346267 -1.122092 0.030823 0.413890 0.000000 0.000000 0.000000 -16.350267 -7.016841 10.669351 0.000000 0.000000 0.000000 -0.126257 8.345248 -8.893773 0.246182 -3.192504 -8.815062 0.000000 0.000000 0.000000 19.065864 9.158289 4.835153 -0.384569 -3.982419 11.027239 0.151174 -12.700373 -15.984918 -0.022333 0.963911 -2.649494 -1.554525 0.383072 9.491970 0.345463 0.359719 0.539196 1.186497 0.214532 -4.776025 -12.659599 -5.422523 -4.317458 8.515042 -7.182924 10.485292 4.285760 -3.610148 4.610104 0.000000 0.000000 0.000000 3.565599 8.405661 -31.360780 60.839772 -56.515963 35.043715 -9.905516 -58.943912 -24.428501 0.000000 0.000000 0.000000 -7.125000 0.000000 0.000000 -38.407292 50.241097 5.704093 0.000000 0.000000 0.000000 -0.752679 2.380474 30.741393 -61.005976 -56.560075 -35.182068 -8.748839 -50.875886 -5.695274 0.000000 0.000000 0.000000 7.125000 0.000000 0.000000 13.277752 24.222428 6.838615
